#!OML:ASF X:\für Bonn\!DataBase\2005_08_11_Bastian_Final\c3d\Bastian.ASF
:FULLY-SPECIFIED
:DEGREES
112
root -2.34543 17.2981 2.13185 162.631 -5.44997 -169.832
lowerback 10.0576 -2.37825 6.37398
upperback 6.73423 -3.90178 5.14697
thorax 1.42696 -2.38045 2.11045
lowerneck -0.911421 -4.99966 -4.2176
upperneck -4.34935 -6.39512 5.82806
head -0.865307 -3.15229 2.57979
rclavicle -8.27441e-015 4.77083e-014
rhumerus -36.5743 26.3073 -93.8461
rradius 40.764
rwrist -33.9018
rhand -39.4722 7.06915
rfingers 7.12502
rthumb -12.4589 -22.5395
lclavicle -8.27441e-015 4.77083e-014
lhumerus 4.36137 -54.3594 81.4599
lradius 52.4655
lwrist -9.30765
lhand -43.1671 -3.10982
lfingers 7.12502
lthumb -16.0193 26.2479
rfemur -7.72002 0.959491 30.2476
rtibia 55.3475
rfoot -6.90293 -15.2724
rtoes -16.7324
lfemur 6.09066 -2.74045 -11.9441
ltibia 32.1719
lfoot -15.8124 -1.14565
ltoes 3.80579
113
root -2.32179 17.2903 2.10845 162.915 -5.57159 -169.946
lowerback 9.50859 -2.36426 6.22274
upperback 6.59817 -3.87276 5.02543
thorax 1.57693 -2.33765 2.0351
lowerneck -0.934018 -5.03277 -4.10505
upperneck -4.21985 -6.44333 5.85477
head -0.820453 -3.17825 2.56427
rclavicle 9.19379e-015 -4.77083e-014
rhumerus -36.7171 26.0091 -94.1928
rradius 40.7622
rwrist -33.77
rhand -39.5708 7.12818
rfingers 7.12502
rthumb -12.554 -22.4747
lclavicle 9.19379e-015 -4.77083e-014
lhumerus 1.9307 -55.0989 83.1119
lradius 50.6035
lwrist -9.70646
lhand -42.2065 -3.36793
lfingers 7.12502
lthumb -15.0941 26.0617
rfemur -6.57486 0.365437 30.075
rtibia 53.3732
rfoot -8.10243 -14.9659
rtoes -15.9028
lfemur 5.70691 -2.69672 -11.9551
ltibia 32.469
lfoot -16.0331 -1.31365
ltoes 3.38611
114
root -2.29909 17.2787 2.08892 163.209 -5.62596 -170.064
lowerback 9.02645 -2.3424 6.11653
upperback 6.4428 -3.82161 4.89842
thorax 1.66894 -2.28427 1.93328
lowerneck -0.967561 -5.06042 -4.02361
upperneck -4.07874 -6.48423 5.89587
head -0.769065 -3.19988 2.5585
rclavicle 3.45637e-014 -8.26944e-014
rhumerus -36.8472 25.7163 -94.5516
rradius 40.6962
rwrist -33.5191
rhand -39.6631 7.05706
rfingers 7.12502
rthumb -12.643 -22.5403
lclavicle 3.45637e-014 -8.26944e-014
lhumerus -0.559494 -55.8055 84.8782
lradius 48.6052
lwrist -9.9799
lhand -41.3923 -3.44989
lfingers 7.12502
lthumb -14.3097 26.037
rfemur -5.51749 -0.177088 29.9221
rtibia 51.4889
rfoot -9.18305 -14.6536
rtoes -14.6029
lfemur 5.29701 -2.71562 -12.0043
ltibia 32.8044
lfoot -16.267 -1.32291
ltoes 2.87376
115
root -2.27805 17.2651 2.07275 163.488 -5.58213 -170.176
lowerback 8.59372 -2.29804 6.04863
upperback 6.30295 -3.74237 4.78532
thorax 1.7513 -2.21995 1.82608
lowerneck -1.04032 -5.081 -3.99258
upperneck -3.9128 -6.51566 5.94905
head -0.701621 -3.21543 2.56395
rclavicle -5.20567e-015 -6.2816e-014
rhumerus -36.9482 25.4855 -94.8807
rradius 40.6189
rwrist -33.2876
rhand -39.748 6.98964
rfingers 7.12502
rthumb -12.7249 -22.6026
lclavicle -5.20567e-015 -6.2816e-014
lhumerus -3.08672 -56.4086 86.7688
lradius 46.544
lwrist -10.1326
lhand -40.6434 -3.27217
lfingers 7.12502
lthumb -13.5879 26.2644
rfemur -4.51941 -0.536042 29.8259
rtibia 49.6984
rfoot -10.3603 -14.4512
rtoes -13.4164
lfemur 4.89469 -2.71986 -12.0495
ltibia 33.1925
lfoot -16.5911 -1.27506
ltoes 2.33559
116
root -2.25653 17.2523 2.05649 163.756 -5.51145 -170.33
lowerback 8.18991 -2.23986 5.9672
upperback 6.15985 -3.6386 4.63933
thorax 1.81373 -2.14245 1.69345
lowerneck -1.05284 -5.11019 -3.94114
upperneck -3.79922 -6.55707 6.01926
head -0.660669 -3.23687 2.5745
rclavicle -4.15087e-014 -3.26007e-014
rhumerus -37.1058 25.2063 -95.2429
rradius 40.5645
rwrist -32.9999
rhand -39.8276 6.82484
rfingers 7.12502
rthumb -12.8016 -22.7627
lclavicle -4.15087e-014 -3.26007e-014
lhumerus -5.74421 -57.0463 88.7889
lradius 44.4993
lwrist -10.0491
lhand -39.9619 -2.74086
lfingers 7.12502
lthumb -12.9311 26.8385
rfemur -3.59942 -0.761617 29.7296
rtibia 48.0195
rfoot -11.6052 -14.3491
rtoes -12.7785
lfemur 4.53341 -2.76108 -12.1586
ltibia 33.5617
lfoot -16.9267 -1.17333
ltoes 1.66479
117
root -2.23468 17.241 2.04102 164.028 -5.40577 -170.464
lowerback 7.82493 -2.18528 5.89142
upperback 6.00655 -3.54035 4.52552
thorax 1.84734 -2.07148 1.59518
lowerneck -1.10433 -5.12461 -3.93774
upperneck -3.65869 -6.58054 6.06421
head -0.604767 -3.24814 2.58362
rclavicle -8.57259e-015 -3.02153e-014
rhumerus -37.2681 24.9983 -95.5971
rradius 40.4738
rwrist -32.6812
rhand -39.9417 6.6839
rfingers 7.12502
rthumb -12.9116 -22.8967
lclavicle -8.57259e-015 -3.02153e-014
lhumerus -8.46248 -57.6424 90.943
lradius 42.4278
lwrist -9.77436
lhand -39.3312 -1.8515
lfingers 7.12502
lthumb -12.323 27.7654
rfemur -2.80663 -0.953943 29.6597
rtibia 46.4786
rfoot -12.8947 -14.2505
rtoes -12.1608
lfemur 4.19509 -2.80281 -12.2465
ltibia 33.881
lfoot -17.2621 -1.00015
ltoes 0.983304
118
root -2.2129 17.2343 2.02571 164.314 -5.28615 -170.62
lowerback 7.43609 -2.10942 5.82932
upperback 5.87333 -3.41537 4.37952
thorax 1.91375 -1.9852 1.45352
lowerneck -1.17168 -5.0093 -3.90504
upperneck -3.56003 -6.65146 6.14704
head -0.55846 -3.3845 2.60145
rclavicle 3.87879e-014 1.51076e-014
rhumerus -37.3786 24.727 -95.9497
rradius 40.3269
rwrist -32.3065
rhand -40.0044 6.5507
rfingers 7.12502
rthumb -12.972 -23.026
lclavicle 3.87879e-014 1.51076e-014
lhumerus -11.2255 -58.4512 93.1217
lradius 40.4318
lwrist -9.08496
lhand -38.7911 -0.696125
lfingers 7.12502
lthumb -11.8022 28.9513
rfemur -2.15664 -1.12208 29.5719
rtibia 45.0995
rfoot -14.0412 -14.1263
rtoes -11.4042
lfemur 3.88701 -2.88245 -12.3757
ltibia 34.1275
lfoot -17.5609 -0.750029
ltoes 0.070119
119
root -2.19165 17.2288 2.01053 164.585 -5.13909 -170.776
lowerback 7.09829 -2.04646 5.77286
upperback 5.72543 -3.30339 4.23967
thorax 1.93771 -1.90747 1.32029
lowerneck -1.2597 -5.02356 -3.89558
upperneck -3.39379 -6.67261 6.21042
head -0.487811 -3.39296 2.61375
rclavicle 2.47269e-014 1.86858e-014
rhumerus -37.5627 24.5632 -96.3455
rradius 40.212
rwrist -32.0426
rhand -40.0728 6.48438
rfingers 7.12502
rthumb -13.038 -23.0882
lclavicle 2.47269e-014 1.86858e-014
lhumerus -14.1655 -59.3287 95.5003
lradius 38.42
lwrist -8.06952
lhand -38.3272 0.669854
lfingers 7.12502
lthumb -11.3549 30.3424
rfemur -1.60932 -1.28623 29.4778
rtibia 43.8922
rfoot -15.0991 -13.9392
rtoes -9.8795
lfemur 3.63686 -2.9602 -12.5051
ltibia 34.3031
lfoot -17.8198 -0.478438
ltoes -0.610071
120
root -2.16834 17.2266 1.99486 164.879 -4.95048 -170.956
lowerback 6.72727 -1.95962 5.67998
upperback 5.60228 -3.16848 4.09867
thorax 2.00893 -1.8196 1.2035
lowerneck -1.37138 -5.04303 -3.86815
upperneck -3.26903 -6.70124 6.2853
head -0.42599 -3.40632 2.62675
rclavicle -3.9906e-014 1.51076e-014
rhumerus -37.6902 24.4537 -96.7335
rradius 40.033
rwrist -31.7868
rhand -40.106 6.42375
rfingers 7.12502
rthumb -13.0699 -23.1467
lclavicle -3.9906e-014 1.51076e-014
lhumerus -17.2299 -60.381 98.0323
lradius 36.4365
lwrist -6.67308
lhand -37.9827 2.12904
lfingers 7.12502
lthumb -11.0226 31.8196
rfemur -1.19078 -1.35784 29.3902
rtibia 42.8545
rfoot -16.0242 -13.7803
rtoes -8.57447
lfemur 3.39848 -2.95461 -12.6302
ltibia 34.4069
lfoot -18.0442 -0.205836
ltoes -1.67856
121
root -2.14308 17.2269 1.97915 165.162 -4.75489 -171.114
lowerback 6.39003 -1.87634 5.58461
upperback 5.4705 -3.03745 3.97627
thorax 2.05456 -1.73616 1.11072
lowerneck -1.48914 -5.04885 -3.85177
upperneck -3.13655 -6.71182 6.35933
head -0.361307 -3.41016 2.64142
rclavicle -3.26674e-014 -3.77691e-014
rhumerus -37.8255 24.3818 -97.1406
rradius 39.8324
rwrist -31.5279
rhand -40.1442 6.35553
rfingers 7.12502
rthumb -13.1068 -23.2126
lclavicle -3.26674e-014 -3.77691e-014
lhumerus -20.6482 -61.4944 100.929
lradius 34.472
lwrist -4.95649
lhand -37.731 3.46769
lfingers 7.12502
lthumb -10.7798 33.1711
rfemur -0.868065 -1.43235 29.3386
rtibia 41.9755
rfoot -16.8071 -13.5954
rtoes -7.29682
lfemur 3.20231 -2.95051 -12.718
ltibia 34.4571
lfoot -18.219 0.0887917
ltoes -2.63219
122
root -2.11522 17.228 1.96249 165.437 -4.5281 -171.313
lowerback 6.06915 -1.77948 5.42474
upperback 5.34117 -2.88826 3.8423
thorax 2.09642 -1.64529 1.04273
lowerneck -1.58525 -5.06876 -3.80539
upperneck -3.0167 -6.74203 6.40544
head -0.305318 -3.42413 2.64224
rclavicle 5.23363e-016 -2.78299e-014
rhumerus -37.9472 24.3205 -97.5321
rradius 39.6024
rwrist -31.2316
rhand -40.1111 6.20647
rfingers 7.12502
rthumb -13.0749 -23.3637
lclavicle 5.23363e-016 -2.78299e-014
lhumerus -24.432 -62.6919 104.217
lradius 32.4465
lwrist -2.9401
lhand -37.562 4.58934
lfingers 7.12502
lthumb -10.6168 34.3011
rfemur -0.605754 -1.36657 29.2898
rtibia 41.2405
rfoot -17.5507 -13.4725
rtoes -6.38348
lfemur 3.03751 -2.89705 -12.829
ltibia 34.4741
lfoot -18.3718 0.355433
ltoes -3.59111
123
root -2.08571 17.2279 1.94541 165.672 -4.27601 -171.497
lowerback 5.79468 -1.6774 5.25487
upperback 5.22153 -2.73358 3.7237
thorax 2.12463 -1.55472 0.998927
lowerneck -1.6895 -5.0749 -3.73315
upperneck -2.89901 -6.75448 6.4308
head -0.25128 -3.4292 2.63165
rclavicle -1.7872e-014 1.90833e-014
rhumerus -38.076 24.3815 -97.9621
rradius 39.3456
rwrist -31.0811
rhand -40.129 6.08588
rfingers 7.12502
rthumb -13.0921 -23.4832
lclavicle -1.7872e-014 1.90833e-014
lhumerus -28.7121 -63.913 108.039
lradius 30.4084
lwrist -0.637988
lhand -37.4814 5.47522
lfingers 7.12502
lthumb -10.539 35.191
rfemur -0.381838 -1.28812 29.2667
rtibia 40.6404
rfoot -18.2329 -13.3408
rtoes -5.66763
lfemur 2.93771 -2.85141 -12.9194
ltibia 34.4719
lfoot -18.5242 0.671988
ltoes -4.47336
124
root -2.05504 17.2281 1.92736 165.9 -4.01091 -171.701
lowerback 5.51045 -1.57239 5.06478
upperback 5.12749 -2.58002 3.59715
thorax 2.18567 -1.46564 0.958382
lowerneck -1.84243 -5.07844 -3.70048
upperneck -2.77362 -6.76343 6.50093
head -0.183618 -3.43208 2.6414
rclavicle 1.38435e-014 7.55382e-015
rhumerus -38.1724 24.5016 -98.3822
rradius 39.0839
rwrist -30.971
rhand -40.0922 5.86703
rfingers 7.12502
rthumb -13.0567 -23.7043
lclavicle 1.38435e-014 7.55382e-015
lhumerus -33.8841 -65.4552 112.674
lradius 28.7012
lwrist 2.27306
lhand -37.3784 6.39191
lfingers 7.12502
lthumb -10.4397 36.1127
rfemur -0.203409 -1.12058 29.25
rtibia 40.1582
rfoot -18.8605 -13.2584
rtoes -4.99963
lfemur 2.83887 -2.73585 -13.0041
ltibia 34.4757
lfoot -18.6728 0.925028
ltoes -5.49932
125
root -2.02403 17.2267 1.9107 166.127 -3.72944 -171.925
lowerback 5.25702 -1.4744 4.85577
upperback 5.0214 -2.43031 3.4516
thorax 2.21675 -1.3787 0.911545
lowerneck -1.95517 -5.06867 -3.60008
upperneck -2.67333 -6.75629 6.52738
head -0.135682 -3.42804 2.62668
rclavicle -4.20958e-014 4.57205e-015
rhumerus -38.2765 24.6123 -98.8475
rradius 38.7564
rwrist -30.7683
rhand -40.0613 5.63024
rfingers 7.12502
rthumb -13.0269 -23.943
lclavicle -4.20958e-014 4.57205e-015
lhumerus -41.1162 -67.5534 119.168
lradius 27.6224
lwrist 6.14838
lhand -37.2557 7.5757
lfingers 7.12502
lthumb -10.3213 37.3024
rfemur -0.0798468 -0.919174 29.2193
rtibia 39.7759
rfoot -19.4029 -13.18
rtoes -4.55797
lfemur 2.7278 -2.57805 -13.1041
ltibia 34.5046
lfoot -18.7969 1.15572
ltoes -6.45105
